<svg version="1.1" xmlns="http://www.w3.org/2000/svg" viewBox="0 0 341.787109375 341.04296875" width="341.787109375" height="341.04296875" class="excalidraw-svg"><!-- svg-source:excalidraw --><metadata></metadata><defs><style class="style-fonts">
      </style></defs><rect x="0" y="0" width="341.787109375" height="341.04296875" fill="#ffffff"></rect><g stroke-linecap="round" transform="translate(146.482421875 90.20703125) rotate(0 73.5234375 85.9765625)"><path d="M92.5 21.5 C101.3 29.43, 107.13 40.18, 128.55 64.5 M92.5 21.5 C102.69 34.23, 113.63 45.71, 128.55 64.5 M128.55 64.5 C148.72 84.54, 147.08 86.3, 128.55 107.5 M128.55 64.5 C149.26 84.9, 149.04 84.19, 128.55 107.5 M128.55 107.5 C120.58 119.41, 108.62 128.3, 92.5 150.45 M128.55 107.5 C118.98 120.58, 108.87 131.9, 92.5 150.45 M92.5 150.45 C72.07 173.33, 75.12 171.94, 55.5 150.45 M92.5 150.45 C73.5 174, 71.85 172.41, 55.5 150.45 M55.5 150.45 C45.53 136.79, 35.97 127.81, 18.5 107.5 M55.5 150.45 C42.24 136.84, 29.75 121.27, 18.5 107.5 M18.5 107.5 C-1.82 87.09, -0.32 87.28, 18.5 64.5 M18.5 107.5 C1.1 87.26, 0.04 86.26, 18.5 64.5 M18.5 64.5 C27.59 50.92, 39.6 39.86, 55.5 21.5 M18.5 64.5 C29.47 53.23, 38.04 42.44, 55.5 21.5 M55.5 21.5 C73.3 -0.43, 72.41 0.23, 92.5 21.5 M55.5 21.5 C74.64 2.18, 76.26 0.42, 92.5 21.5" stroke="#1e1e1e" stroke-width="2" fill="none"></path></g><g transform="translate(195.216796875 22.08984375) rotate(0 10.8837890625 14.5107421875)" stroke="none"><path fill="#1e1e1e" d="M -0.97,-3.49 Q -0.97,-3.49 8.79,-6.09 18.56,-8.68 27.42,-10.30 36.27,-11.92 45.54,-12.80 54.80,-13.67 62.80,-14.03 70.80,-14.39 77.30,-14.04 83.79,-13.69 89.11,-12.30 94.43,-10.92 98.22,-8.74 102.02,-6.57 104.48,-3.85 106.93,-1.12 107.82,2.48 108.72,6.08 107.44,10.00 106.16,13.91 102.76,17.20 99.37,20.48 94.77,23.13 90.16,25.78 84.91,28.04 79.67,30.29 74.14,32.16 68.61,34.02 63.00,35.37 57.39,36.73 51.79,37.57 46.20,38.42 41.09,38.87 35.99,39.33 31.40,39.44 26.81,39.54 22.96,39.41 19.11,39.27 16.38,39.01 13.64,38.75 10.22,37.79 6.80,36.83 5.03,33.45 3.27,30.08 3.63,27.85 3.98,25.62 5.32,23.35 6.65,21.07 9.40,18.97 12.16,16.87 16.48,15.62 20.81,14.37 26.28,14.00 31.75,13.64 37.31,13.74 42.88,13.83 47.92,14.49 52.97,15.15 56.94,16.05 60.91,16.95 63.51,17.61 66.11,18.27 69.27,19.85 72.43,21.43 73.86,24.32 75.28,27.21 75.65,29.64 76.02,32.07 78.44,31.69 80.86,31.31 83.28,31.90 85.71,32.49 88.65,32.91 91.60,33.33 94.87,33.49 98.14,33.64 101.58,33.36 105.01,33.08 108.54,32.39 112.06,31.69 115.49,30.76 118.93,29.83 121.66,28.82 124.40,27.81 127.49,26.08 130.57,24.35 128.71,22.08 126.86,19.82 124.62,18.17 122.38,16.52 119.18,14.37 115.97,12.21 112.13,10.00 108.29,7.80 104.27,5.77 100.25,3.75 95.82,1.84 91.39,-0.05 86.79,-1.66 82.18,-3.27 77.56,-4.39 72.94,-5.51 68.04,-6.22 63.14,-6.94 58.43,-7.33 53.72,-7.72 49.07,-7.85 44.42,-7.98 39.74,-7.54 35.06,-7.10 30.43,-5.78 25.80,-4.45 20.90,-2.38 16.01,-0.31 10.97,2.25 5.93,4.81 0.91,7.67 -4.10,10.52 -9.05,13.49 -14.00,16.46 -18.98,19.45 -23.95,22.43 -29.13,25.31 -34.31,28.19 -39.82,30.81 -45.33,33.43 -50.76,35.52 -56.19,37.61 -61.31,39.04 -66.43,40.48 -71.36,41.35 -76.29,42.23 -80.76,42.66 -85.23,43.10 -89.08,43.14 -92.94,43.17 -96.70,42.19 -100.46,41.21 -103.74,39.30 -107.02,37.38 -109.51,34.90 -111.99,32.41 -113.75,29.32 -115.51,26.22 -116.51,22.85 -117.50,19.47 -117.86,16.27 -118.23,13.06 -117.82,10.00 -117.41,6.95 -115.96,4.18 -114.50,1.42 -111.93,-0.69 -109.36,-2.80 -106.14,-4.06 -102.93,-5.32 -99.63,-5.91 -96.32,-6.51 -93.40,-6.78 -90.48,-7.05 -88.12,-7.20 -85.77,-7.34 -82.50,-7.32 -79.24,-7.29 -76.49,-6.63 -73.74,-5.97 -72.96,-5.55 -72.19,-5.13 -71.58,-4.49 -70.98,-3.84 -70.62,-3.04 -70.25,-2.24 -70.16,-1.36 -70.07,-0.48 -70.27,0.36 -70.46,1.22 -70.92,1.98 -71.38,2.73 -72.06,3.30 -72.73,3.86 -73.55,4.18 -74.37,4.50 -75.25,4.55 -76.14,4.59 -76.98,4.35 -77.83,4.10 -78.56,3.61 -79.28,3.11 -79.81,2.40 -80.34,1.70 -80.62,0.86 -80.89,0.02 -80.89,-0.85 -80.88,-1.73 -80.59,-2.57 -80.31,-3.40 -79.77,-4.10 -79.23,-4.80 -78.50,-5.29 -77.77,-5.78 -76.91,-6.01 -76.06,-6.24 -75.18,-6.18 -74.30,-6.13 -73.49,-5.80 -72.67,-5.47 -72.00,-4.89 -71.33,-4.31 -70.88,-3.56 -70.44,-2.80 -70.25,-1.94 -70.07,-1.07 -70.17,-0.20 -70.27,0.67 -70.65,1.47 -71.02,2.26 -71.63,2.90 -72.24,3.53 -73.02,3.94 -73.81,4.35 -74.68,4.49 -75.55,4.62 -76.42,4.47 -77.29,4.33 -77.28,4.33 -77.28,4.33 -79.84,3.66 -82.40,2.99 -86.05,2.81 -89.70,2.64 -92.22,2.80 -94.73,2.96 -97.24,3.35 -99.74,3.73 -103.32,5.12 -106.90,6.50 -108.42,9.51 -109.94,12.52 -109.88,15.02 -109.81,17.52 -109.26,20.15 -108.72,22.79 -107.65,25.22 -106.58,27.64 -104.97,29.72 -103.36,31.80 -100.96,33.54 -98.56,35.28 -95.65,36.36 -92.74,37.44 -89.24,37.65 -85.73,37.86 -81.47,37.45 -77.20,37.04 -72.52,36.23 -67.84,35.41 -62.96,34.05 -58.07,32.69 -52.83,30.68 -47.59,28.67 -42.24,26.13 -36.88,23.58 -31.78,20.74 -26.67,17.90 -21.70,14.91 -16.73,11.91 -11.73,8.90 -6.73,5.89 -1.61,2.97 3.50,0.05 8.70,-2.60 13.90,-5.27 19.10,-7.47 24.30,-9.68 29.41,-11.13 34.51,-12.58 39.52,-13.08 44.53,-13.58 49.34,-13.51 54.14,-13.44 59.03,-13.12 63.92,-12.80 69.11,-12.16 74.29,-11.52 79.24,-10.49 84.18,-9.46 89.06,-8.00 93.94,-6.54 98.65,-4.86 103.35,-3.18 107.69,-1.48 112.03,0.22 116.36,2.05 120.69,3.87 124.60,5.75 128.51,7.63 131.49,9.58 134.47,11.53 136.62,13.65 138.78,15.76 140.01,18.19 141.23,20.62 141.28,22.84 141.32,25.05 139.58,27.99 137.83,30.93 134.75,32.60 131.67,34.28 129.44,35.08 127.21,35.88 124.25,36.85 121.29,37.83 117.68,38.97 114.07,40.12 110.12,41.20 106.18,42.28 102.15,42.95 98.12,43.61 94.31,43.74 90.50,43.87 86.89,43.60 83.28,43.33 80.14,42.67 77.00,42.01 74.77,41.16 72.54,40.32 69.76,38.43 66.98,36.53 66.36,33.39 65.74,30.24 64.74,27.83 63.74,25.43 61.58,24.51 59.41,23.60 55.83,22.80 52.25,22.01 47.63,21.67 43.01,21.32 37.83,21.61 32.64,21.90 28.09,22.62 23.54,23.35 19.11,25.17 14.68,26.99 14.76,29.56 14.83,32.13 17.16,32.78 19.48,33.43 23.07,33.76 26.66,34.09 31.07,33.96 35.48,33.82 40.40,33.34 45.33,32.85 50.66,31.99 56.00,31.12 61.32,29.75 66.64,28.38 71.88,26.49 77.12,24.60 81.95,22.35 86.78,20.10 90.65,17.69 94.53,15.28 96.97,13.07 99.41,10.87 100.55,6.68 101.70,2.50 100.33,0.37 98.96,-1.74 95.96,-3.66 92.97,-5.57 88.23,-6.80 83.49,-8.03 77.29,-8.31 71.10,-8.58 63.26,-8.13 55.41,-7.67 46.44,-6.69 37.47,-5.72 28.92,-3.96 20.37,-2.21 10.67,0.64 0.97,3.49 0.54,3.56 0.11,3.63 -0.32,3.59 -0.75,3.55 -1.17,3.40 -1.58,3.26 -1.95,3.02 -2.32,2.79 -2.62,2.47 -2.92,2.15 -3.13,1.77 -3.35,1.39 -3.47,0.97 -3.59,0.54 -3.60,0.11 -3.61,-0.32 -3.52,-0.75 -3.43,-1.18 -3.24,-1.57 -3.05,-1.96 -2.77,-2.30 -2.49,-2.64 -2.13,-2.90 -1.78,-3.16 -1.38,-3.32 -0.97,-3.49 -0.97,-3.49 L -0.97,-3.49 Z"></path></g><g transform="translate(89.619140625 152.5) rotate(0 71.0283203125 16.8359375)" stroke="none"><path fill="#1e1e1e" d="M -0.78,0 Q -0.78,0 -0.76,-1.83 -0.74,-3.67 -0.73,-8.26 -0.72,-12.85 -0.71,-17.22 -0.70,-21.58 -0.49,-25.60 -0.28,-29.63 0.48,-32.80 1.25,-35.97 2.67,-38.19 4.09,-40.42 6.44,-41.68 8.80,-42.94 12.18,-43.44 15.57,-43.93 19.95,-43.31 24.33,-42.68 29.94,-40.03 35.55,-37.38 41.67,-32.80 47.79,-28.23 53.23,-22.56 58.66,-16.88 62.53,-11.33 66.40,-5.77 68.70,-0.06 71.00,5.63 72.01,11.55 73.03,17.47 72.32,22.90 71.62,28.34 68.83,33.55 66.04,38.77 62.05,43.31 58.06,47.85 53.82,51.39 49.59,54.93 45.40,57.51 41.21,60.09 37.61,61.63 34.01,63.16 31.28,63.87 28.55,64.59 26.50,64.63 24.45,64.66 22.95,63.81 21.45,62.96 20.58,61.10 19.71,59.25 19.40,56.64 19.08,54.03 19.35,51.13 19.62,48.23 20.75,45.45 21.89,42.67 24.02,40.50 26.15,38.34 29.34,37.12 32.53,35.90 36.83,35.75 41.14,35.59 45.84,36.47 50.54,37.34 54.92,38.97 59.29,40.61 63.00,42.64 66.71,44.68 69.36,46.79 72.02,48.89 73.65,51.12 75.28,53.35 76.04,55.81 76.81,58.27 76.39,61.11 75.97,63.96 73.87,66.89 71.77,69.82 68.03,72.05 64.30,74.28 59.92,75.47 55.54,76.65 51.09,76.36 46.65,76.07 42.61,73.95 38.58,71.83 35.99,67.99 33.41,64.16 32.79,58.83 32.16,53.51 34.41,47.08 36.66,40.64 42.23,34.65 47.79,28.67 55.38,24.81 62.97,20.95 71.48,19.07 79.98,17.20 87.80,16.69 95.61,16.18 101.63,16.93 107.66,17.69 112.07,19.44 116.48,21.18 119.31,23.66 122.13,26.13 123.65,29.17 125.18,32.21 125.78,35.24 126.39,38.27 126.37,40.90 126.35,43.53 126.01,45.55 125.67,47.57 125.35,48.87 125.03,50.16 124.87,50.88 124.72,51.60 124.82,51.93 124.91,52.26 124.87,52.36 124.83,52.46 124.77,52.54 124.70,52.62 124.62,52.69 124.54,52.75 124.45,52.80 124.36,52.84 124.25,52.86 124.15,52.89 124.05,52.88 123.94,52.88 123.84,52.85 123.74,52.82 123.65,52.77 123.56,52.72 123.49,52.64 123.41,52.57 123.36,52.48 123.30,52.40 123.27,52.30 123.24,52.20 123.23,52.09 123.22,51.99 123.24,51.89 123.25,51.79 124.30,51.36 125.34,50.93 126.77,50.44 128.20,49.94 129.98,49.31 131.75,48.67 133.44,48.12 135.13,47.58 136.54,47.16 137.95,46.73 139.92,46.15 141.88,45.56 142.01,45.55 142.13,45.54 142.26,45.58 142.38,45.61 142.49,45.68 142.59,45.75 142.67,45.86 142.75,45.96 142.79,46.08 142.83,46.20 142.83,46.33 142.83,46.46 142.79,46.58 142.75,46.70 142.68,46.80 142.60,46.91 142.49,46.98 142.39,47.05 142.26,47.09 142.14,47.12 142.01,47.11 141.88,47.11 141.76,47.06 141.65,47.01 141.55,46.93 141.45,46.85 141.38,46.74 141.32,46.63 141.29,46.50 141.26,46.38 141.27,46.25 141.29,46.12 141.34,46.01 141.39,45.89 141.48,45.80 141.57,45.70 141.68,45.64 141.80,45.58 141.92,45.56 142.05,45.54 142.18,45.56 142.30,45.58 142.42,45.64 142.53,45.70 142.62,45.79 142.71,45.89 142.76,46.00 142.82,46.12 142.83,46.25 142.84,46.37 142.82,46.50 142.79,46.62 142.72,46.73 142.66,46.84 142.56,46.93 142.46,47.01 142.34,47.06 142.23,47.11 142.23,47.11 142.23,47.11 140.30,47.60 138.37,48.10 136.98,48.53 135.60,48.97 133.94,49.54 132.28,50.10 130.51,50.78 128.75,51.45 126.83,51.86 124.91,52.26 124.87,52.36 124.83,52.46 124.77,52.54 124.71,52.62 124.62,52.69 124.54,52.75 124.45,52.80 124.36,52.84 124.25,52.86 124.15,52.89 124.05,52.88 123.94,52.88 123.84,52.85 123.74,52.82 123.65,52.77 123.56,52.72 123.49,52.64 123.41,52.57 123.36,52.48 123.30,52.40 123.27,52.30 123.24,52.20 123.23,52.09 123.22,51.99 123.24,51.89 123.25,51.79 123.25,51.51 123.24,51.24 123.50,50.54 123.75,49.85 124.06,48.60 124.37,47.35 124.70,45.43 125.04,43.51 125.07,41.01 125.10,38.52 124.55,35.65 124.00,32.78 122.62,29.93 121.23,27.08 118.60,24.74 115.98,22.39 111.73,20.69 107.48,18.99 101.59,18.24 95.69,17.49 87.98,17.99 80.26,18.48 71.91,20.30 63.55,22.13 56.14,25.85 48.73,29.58 43.30,35.35 37.88,41.12 35.67,47.27 33.46,53.42 33.99,58.46 34.53,63.50 36.89,67.11 39.25,70.72 43.02,72.75 46.79,74.77 51.00,75.08 55.22,75.38 59.43,74.26 63.64,73.14 67.19,71.08 70.74,69.01 72.72,66.35 74.69,63.69 75.12,61.14 75.55,58.59 74.88,56.35 74.21,54.10 72.70,52.01 71.19,49.91 68.63,47.87 66.07,45.83 62.45,43.83 58.83,41.84 54.56,40.23 50.29,38.63 45.74,37.77 41.18,36.91 37.07,37.02 32.96,37.14 30.00,38.22 27.04,39.29 25.06,41.25 23.08,43.20 22.00,45.79 20.93,48.38 20.66,51.13 20.39,53.89 20.65,56.31 20.92,58.74 21.57,60.34 22.22,61.94 23.38,62.66 24.53,63.37 26.38,63.35 28.22,63.32 30.86,62.63 33.50,61.95 37.01,60.46 40.53,58.97 44.64,56.45 48.75,53.92 52.91,50.45 57.08,46.98 60.98,42.56 64.88,38.14 67.61,33.14 70.33,28.13 71.03,22.90 71.73,17.67 70.75,11.90 69.78,6.12 67.55,0.54 65.32,-5.02 61.51,-10.50 57.70,-15.97 52.35,-21.58 47.00,-27.18 40.99,-31.68 34.98,-36.18 29.55,-38.78 24.13,-41.37 19.93,-41.99 15.74,-42.62 12.56,-42.18 9.39,-41.74 7.28,-40.68 5.16,-39.62 3.86,-37.62 2.57,-35.63 1.83,-32.59 1.09,-29.55 0.89,-25.57 0.70,-21.58 0.71,-17.22 0.72,-12.85 0.73,-8.26 0.74,-3.67 0.76,-1.83 0.78,0 0.76,0.09 0.75,0.18 0.72,0.27 0.69,0.36 0.63,0.44 0.58,0.51 0.51,0.58 0.44,0.64 0.36,0.68 0.27,0.73 0.18,0.75 0.09,0.77 -0.00,0.77 -0.09,0.77 -0.18,0.75 -0.27,0.73 -0.36,0.68 -0.44,0.64 -0.51,0.58 -0.58,0.51 -0.63,0.44 -0.69,0.36 -0.72,0.27 -0.75,0.18 -0.76,0.09 -0.78,-0.00 -0.78,-0.00 L -0.78,0 Z"></path></g><g transform="translate(141.3984375 273.01953125) rotate(0 -11.4443359375 -4.095703125)" stroke="none"><path fill="#1e1e1e" d="M -0.78,-0.02 Q -0.78,-0.02 -0.76,-0.97 -0.73,-1.93 -0.70,-4.08 -0.66,-6.24 -0.64,-9.72 -0.62,-13.19 -0.61,-17.97 -0.59,-22.74 -0.58,-28.26 -0.57,-33.77 -0.57,-38.79 -0.56,-43.80 -0.56,-47.78 -0.55,-51.76 -0.41,-54.75 -0.27,-57.73 0.22,-59.81 0.71,-61.88 1.58,-63.24 2.45,-64.59 3.97,-65.27 5.48,-65.96 7.83,-66.06 10.17,-66.16 13.02,-65.35 15.87,-64.54 18.86,-62.40 21.85,-60.25 24.53,-56.66 27.21,-53.06 29.27,-47.70 31.32,-42.34 32.58,-34.55 33.84,-26.77 33.89,-17.42 33.94,-8.08 32.43,1.19 30.92,10.47 28.07,18.82 25.23,27.16 21.79,33.77 18.35,40.38 14.89,44.93 11.44,49.48 8.05,52.12 4.66,54.75 1.46,55.56 -1.73,56.37 -4.38,55.03 -7.03,53.68 -8.75,50.20 -10.47,46.72 -11.06,41.71 -11.65,36.70 -10.66,30.97 -9.67,25.23 -7.29,20.10 -4.90,14.97 -2.28,11.28 0.34,7.58 2.66,5.04 4.99,2.50 6.78,0.87 8.56,-0.75 9.68,-1.60 10.80,-2.45 11.61,-2.86 12.43,-3.27 13.02,-2.80 13.62,-2.32 13.32,-1.02 13.02,0.27 11.50,2.76 9.97,5.25 7.18,8.45 4.39,11.65 0.52,14.51 -3.34,17.36 -8.17,19.01 -13.00,20.65 -18.49,20.25 -23.99,19.85 -29.50,16.75 -35.00,13.65 -39.85,8.01 -44.69,2.36 -48.21,-4.83 -51.72,-12.04 -53.67,-18.81 -55.62,-25.59 -56.47,-30.82 -57.32,-36.04 -57.68,-39.77 -58.04,-43.50 -58.15,-45.85 -58.26,-48.20 -58.19,-50.37 -58.12,-52.54 -58.08,-52.66 -58.05,-52.78 -57.98,-52.89 -57.91,-52.99 -57.81,-53.07 -57.71,-53.14 -57.59,-53.18 -57.47,-53.22 -57.34,-53.22 -57.22,-53.22 -57.10,-53.18 -56.98,-53.14 -56.88,-53.07 -56.78,-52.99 -56.70,-52.89 -56.63,-52.78 -56.60,-52.66 -56.57,-52.54 -56.57,-52.41 -56.58,-52.29 -56.63,-52.17 -56.67,-52.05 -56.75,-51.96 -56.84,-51.86 -56.94,-51.80 -57.05,-51.73 -57.17,-51.70 -57.30,-51.68 -57.42,-51.69 -57.55,-51.70 -57.66,-51.76 -57.78,-51.81 -57.87,-51.90 -57.96,-51.98 -58.02,-52.09 -58.08,-52.20 -58.10,-52.33 -58.12,-52.45 -58.10,-52.58 -58.08,-52.70 -58.02,-52.81 -57.96,-52.93 -57.87,-53.01 -57.78,-53.10 -57.66,-53.15 -57.55,-53.20 -57.42,-53.22 -57.30,-53.23 -57.18,-53.21 -57.05,-53.18 -56.94,-53.11 -56.84,-53.05 -56.75,-52.95 -56.67,-52.86 -56.63,-52.74 -56.58,-52.62 -56.57,-52.50 -56.57,-52.37 -56.57,-52.37 -56.57,-52.37 -56.75,-50.32 -56.94,-48.26 -56.83,-45.95 -56.72,-43.63 -56.37,-39.94 -56.01,-36.25 -55.17,-31.11 -54.34,-25.96 -52.43,-19.29 -50.52,-12.62 -47.09,-5.56 -43.66,1.49 -38.99,6.99 -34.31,12.49 -29.07,15.49 -23.83,18.49 -18.62,18.90 -13.41,19.32 -8.79,17.76 -4.18,16.20 -0.45,13.44 3.28,10.68 5.97,7.56 8.66,4.44 10.06,2.13 11.46,-0.18 11.53,-0.79 11.59,-1.41 10.52,-0.59 9.45,0.21 7.70,1.80 5.95,3.39 3.68,5.87 1.40,8.34 -1.15,11.94 -3.72,15.53 -6.05,20.50 -8.38,25.47 -9.36,31.02 -10.35,36.56 -9.81,41.37 -9.28,46.18 -7.79,49.41 -6.30,52.64 -4.06,53.88 -1.82,55.12 1.03,54.41 3.89,53.69 7.15,51.18 10.40,48.68 13.79,44.23 17.18,39.77 20.58,33.25 23.98,26.73 26.80,18.50 29.62,10.26 31.12,1.09 32.62,-8.08 32.58,-17.32 32.54,-26.56 31.31,-34.22 30.09,-41.88 28.12,-47.08 26.15,-52.29 23.60,-55.74 21.06,-59.20 18.27,-61.24 15.48,-63.29 12.84,-64.07 10.19,-64.84 8.08,-64.79 5.97,-64.73 4.72,-64.25 3.47,-63.78 2.73,-62.66 2.00,-61.55 1.53,-59.61 1.06,-57.66 0.93,-54.71 0.79,-51.76 0.80,-47.78 0.80,-43.80 0.81,-38.79 0.81,-33.77 0.82,-28.26 0.83,-22.74 0.83,-17.97 0.84,-13.19 0.85,-9.71 0.86,-6.23 0.86,-4.05 0.87,-1.87 0.83,-0.92 0.78,0.02 0.77,0.12 0.76,0.21 0.72,0.30 0.68,0.39 0.62,0.46 0.57,0.54 0.49,0.60 0.42,0.66 0.33,0.70 0.25,0.74 0.15,0.76 0.06,0.78 -0.02,0.78 -0.12,0.78 -0.21,0.75 -0.30,0.72 -0.38,0.68 -0.47,0.63 -0.54,0.56 -0.61,0.50 -0.66,0.42 -0.71,0.34 -0.74,0.25 -0.77,0.16 -0.78,0.06 -0.78,-0.02 -0.78,-0.02 L -0.78,-0.02 Z"></path></g><g transform="translate(70.517578125 183.111328125) rotate(0 -10.3701171875 -4.341796875)" stroke="none"><path fill="#1e1e1e" d="M -0.29,0.92 Q -0.29,0.92 -1.71,0.42 -3.13,-0.06 -4.93,-0.75 -6.72,-1.43 -8.61,-2.17 -10.50,-2.91 -12.17,-3.59 -13.84,-4.26 -15.15,-4.87 -16.47,-5.47 -17.47,-5.98 -18.48,-6.48 -19.14,-6.77 -19.81,-7.05 -20.40,-7.35 -21.00,-7.64 -21.09,-7.71 -21.18,-7.78 -21.26,-7.88 -21.33,-7.97 -21.38,-8.08 -21.43,-8.18 -21.45,-8.30 -21.47,-8.41 -21.46,-8.53 -21.46,-8.65 -21.42,-8.76 -21.39,-8.88 -21.33,-8.98 -21.27,-9.08 -21.19,-9.16 -21.10,-9.25 -21.00,-9.31 -20.90,-9.37 -20.79,-9.40 -20.68,-9.44 -20.56,-9.45 -20.44,-9.46 -20.33,-9.43 -20.21,-9.41 -20.10,-9.37 -20.00,-9.32 -19.19,-9.54 -18.39,-9.75 -17.62,-9.76 -16.84,-9.77 -16.04,-9.76 -15.24,-9.74 -13.22,-9.17 -11.19,-8.59 -11.08,-8.44 -10.97,-8.29 -10.91,-8.12 -10.85,-7.94 -10.85,-7.76 -10.85,-7.57 -10.91,-7.39 -10.97,-7.22 -11.08,-7.07 -11.20,-6.92 -11.35,-6.82 -11.50,-6.72 -11.68,-6.67 -11.86,-6.62 -12.05,-6.63 -12.23,-6.64 -12.41,-6.71 -12.58,-6.78 -12.72,-6.90 -12.86,-7.02 -12.96,-7.18 -13.05,-7.34 -13.09,-7.52 -13.13,-7.70 -13.11,-7.88 -13.09,-8.07 -13.01,-8.24 -12.93,-8.41 -12.80,-8.54 -12.68,-8.67 -12.51,-8.76 -12.35,-8.85 -12.16,-8.88 -11.98,-8.91 -11.80,-8.88 -11.61,-8.85 -11.45,-8.76 -11.29,-8.67 -11.16,-8.54 -11.03,-8.40 -10.95,-8.23 -10.88,-8.06 -10.86,-7.88 -10.84,-7.69 -10.88,-7.51 -10.92,-7.33 -11.01,-7.17 -11.11,-7.01 -11.25,-6.89 -11.39,-6.77 -11.57,-6.71 -11.74,-6.64 -11.93,-6.63 -12.11,-6.62 -12.29,-6.67 -12.47,-6.72 -12.62,-6.82 -12.78,-6.93 -12.78,-6.93 -12.78,-6.93 -14.03,-7.23 -15.29,-7.53 -16.06,-7.55 -16.82,-7.57 -17.59,-7.57 -18.36,-7.57 -19.11,-7.68 -19.86,-7.79 -20.43,-7.71 -21.00,-7.64 -21.09,-7.71 -21.18,-7.78 -21.26,-7.88 -21.33,-7.97 -21.38,-8.08 -21.43,-8.18 -21.45,-8.30 -21.47,-8.41 -21.46,-8.53 -21.46,-8.65 -21.42,-8.76 -21.39,-8.88 -21.33,-8.98 -21.27,-9.08 -21.19,-9.16 -21.10,-9.25 -21.00,-9.31 -20.90,-9.37 -20.79,-9.40 -20.68,-9.44 -20.56,-9.45 -20.44,-9.46 -20.33,-9.43 -20.21,-9.41 -20.10,-9.37 -20.00,-9.32 -19.53,-8.90 -19.07,-8.49 -18.46,-8.12 -17.85,-7.74 -16.87,-7.26 -15.88,-6.79 -14.59,-6.22 -13.29,-5.65 -11.62,-5.01 -9.95,-4.37 -8.06,-3.67 -6.16,-2.98 -4.38,-2.36 -2.60,-1.74 -1.15,-1.33 0.29,-0.92 0.39,-0.87 0.50,-0.82 0.59,-0.75 0.68,-0.68 0.75,-0.58 0.82,-0.49 0.87,-0.38 0.92,-0.28 0.94,-0.16 0.96,-0.05 0.95,0.06 0.94,0.17 0.91,0.28 0.87,0.40 0.81,0.49 0.75,0.59 0.67,0.68 0.59,0.76 0.49,0.82 0.39,0.88 0.28,0.91 0.17,0.95 0.05,0.95 -0.06,0.96 -0.17,0.94 -0.29,0.92 -0.29,0.92 L -0.29,0.92 Z"></path></g><g transform="translate(57.279296875 177.13671875) rotate(0 44.240234375 -13.2373046875)" stroke="none"><path fill="#1e1e1e" d="M -0.77,0.07 Q -0.77,0.07 -0.87,-1.15 -0.97,-2.37 -1.02,-4.10 -1.08,-5.82 -1.10,-8.04 -1.11,-10.26 -1.06,-13.03 -1.01,-15.79 -0.37,-18.93 0.26,-22.07 2.01,-24.92 3.76,-27.77 6.75,-30.09 9.75,-32.42 13.97,-33.95 18.19,-35.48 23.38,-36.10 28.57,-36.73 34.58,-36.07 40.60,-35.42 47.00,-33.19 53.40,-30.95 59.14,-27.85 64.89,-24.74 69.42,-21.35 73.95,-17.96 77.31,-14.55 80.67,-11.14 82.92,-7.87 85.17,-4.60 86.44,-1.47 87.71,1.66 88.22,4.55 88.73,7.45 88.53,10.03 88.34,12.61 87.36,14.85 86.38,17.09 84.64,18.94 82.91,20.78 80.17,22.13 77.43,23.49 73.68,24.27 69.94,25.06 65.43,25.29 60.93,25.52 55.89,24.94 50.86,24.35 46.07,22.88 41.28,21.40 37.12,19.36 32.97,17.32 29.60,15.17 26.24,13.02 23.81,11.13 21.39,9.23 19.69,7.64 17.99,6.06 16.92,4.77 15.85,3.49 15.24,2.42 14.62,1.35 14.28,0.35 13.94,-0.64 13.78,-1.63 13.62,-2.62 13.54,-3.53 13.45,-4.44 13.43,-5.27 13.41,-6.09 13.45,-6.81 13.50,-7.53 13.62,-8.16 13.75,-8.79 13.95,-9.41 14.16,-10.02 14.44,-10.70 14.72,-11.37 15.04,-12.17 15.35,-12.97 15.74,-13.97 16.12,-14.98 16.54,-16.22 16.97,-17.46 17.42,-18.98 17.88,-20.50 18.61,-22.76 19.35,-25.02 20.37,-27.86 21.40,-30.70 22.60,-33.70 23.79,-36.69 25.25,-39.54 26.71,-42.38 28.35,-44.58 29.99,-46.79 31.79,-48.27 33.60,-49.76 35.67,-50.59 37.74,-51.42 40.15,-51.79 42.56,-52.15 45.00,-52.29 47.43,-52.42 49.54,-52.33 51.65,-52.25 53.36,-51.99 55.08,-51.74 56.32,-51.46 57.57,-51.19 59.55,-50.41 61.53,-49.63 61.63,-49.56 61.72,-49.49 61.78,-49.39 61.85,-49.30 61.88,-49.18 61.91,-49.07 61.90,-48.96 61.90,-48.84 61.85,-48.73 61.81,-48.62 61.73,-48.54 61.66,-48.45 61.56,-48.39 61.46,-48.33 61.34,-48.30 61.23,-48.28 61.11,-48.29 61.00,-48.30 60.89,-48.35 60.79,-48.40 60.70,-48.48 60.62,-48.56 60.57,-48.67 60.51,-48.77 60.49,-48.88 60.47,-49.00 60.49,-49.11 60.51,-49.23 60.57,-49.33 60.62,-49.43 60.71,-49.51 60.79,-49.59 60.90,-49.64 61.00,-49.69 61.12,-49.70 61.24,-49.72 61.35,-49.69 61.46,-49.66 61.56,-49.60 61.66,-49.54 61.74,-49.45 61.81,-49.37 61.85,-49.26 61.90,-49.15 61.90,-49.03 61.91,-48.92 61.88,-48.80 61.85,-48.69 61.78,-48.60 61.71,-48.50 61.62,-48.43 61.53,-48.36 61.42,-48.32 61.31,-48.29 61.19,-48.29 61.07,-48.29 60.96,-48.33 60.85,-48.36 60.85,-48.36 60.85,-48.36 59.07,-49.13 57.28,-49.90 56.08,-50.16 54.89,-50.43 53.24,-50.67 51.59,-50.92 49.54,-51.00 47.50,-51.09 45.13,-50.96 42.76,-50.83 40.50,-50.50 38.23,-50.16 36.34,-49.43 34.44,-48.69 32.77,-47.33 31.09,-45.96 29.52,-43.85 27.96,-41.74 26.55,-38.95 25.13,-36.16 23.97,-33.18 22.80,-30.20 21.81,-27.38 20.83,-24.56 20.15,-22.31 19.46,-20.06 19.06,-18.50 18.66,-16.95 18.31,-15.66 17.96,-14.38 17.67,-13.30 17.37,-12.21 17.07,-11.35 16.76,-10.49 16.47,-9.85 16.17,-9.21 15.77,-8.25 15.36,-7.29 15.24,-6.68 15.12,-6.06 15.07,-5.30 15.03,-4.54 15.05,-3.67 15.08,-2.81 15.17,-1.93 15.26,-1.05 15.51,-0.17 15.77,0.71 16.31,1.68 16.86,2.65 17.88,3.88 18.89,5.10 20.54,6.65 22.19,8.20 24.57,10.05 26.95,11.91 30.25,14.03 33.55,16.14 37.61,18.15 41.67,20.15 46.34,21.60 51.01,23.05 55.94,23.63 60.87,24.21 65.27,23.99 69.68,23.77 73.27,23.04 76.86,22.30 79.42,21.08 81.98,19.85 83.59,18.20 85.19,16.54 86.11,14.51 87.03,12.48 87.23,10.07 87.43,7.66 86.96,4.90 86.49,2.15 85.28,-0.85 84.08,-3.86 81.91,-7.04 79.73,-10.22 76.45,-13.57 73.16,-16.91 68.71,-20.25 64.26,-23.58 58.61,-26.65 52.96,-29.71 46.70,-31.91 40.45,-34.11 34.58,-34.76 28.71,-35.41 23.67,-34.82 18.63,-34.22 14.59,-32.79 10.55,-31.35 7.72,-29.19 4.89,-27.03 3.24,-24.40 1.59,-21.77 0.97,-18.77 0.36,-15.77 0.32,-13.02 0.28,-10.28 0.32,-8.08 0.36,-5.88 0.43,-4.20 0.51,-2.51 0.64,-1.29 0.77,-0.07 0.77,0.02 0.77,0.11 0.74,0.20 0.72,0.29 0.67,0.37 0.63,0.46 0.56,0.52 0.50,0.59 0.42,0.64 0.34,0.70 0.25,0.73 0.16,0.76 0.07,0.77 -0.02,0.78 -0.11,0.76 -0.20,0.75 -0.29,0.71 -0.38,0.68 -0.45,0.62 -0.53,0.57 -0.59,0.49 -0.65,0.42 -0.69,0.34 -0.73,0.25 -0.75,0.16 -0.77,0.07 -0.77,0.07 L -0.77,0.07 Z"></path></g><g transform="translate(10 146.94921875) rotate(0 131.677734375 52.13671875)" stroke="none"><path fill="#1e1e1e" d="M -0.01,-0.78 Q -0.01,-0.78 2.40,-0.79 4.81,-0.81 8.44,-0.68 12.07,-0.54 16.76,0.10 21.45,0.74 26.70,1.88 31.95,3.01 37.57,4.39 43.18,5.76 49.13,7.25 55.09,8.74 61.11,10.36 67.14,11.98 72.51,13.54 77.88,15.11 82.27,16.40 86.67,17.69 90.09,18.67 93.51,19.66 95.90,20.31 98.28,20.96 99.87,21.42 101.46,21.88 102.43,22.16 103.39,22.44 103.94,22.54 104.49,22.63 104.36,21.25 104.22,19.88 104.02,17.57 103.83,15.26 103.08,10.52 102.34,5.79 101.76,2.46 101.18,-0.86 100.75,-3.11 100.31,-5.35 100.04,-6.68 99.77,-8.01 99.57,-8.65 99.38,-9.29 99.37,-9.39 99.36,-9.49 99.38,-9.59 99.39,-9.69 99.43,-9.78 99.47,-9.87 99.53,-9.95 99.58,-10.03 99.66,-10.09 99.74,-10.16 99.83,-10.20 99.92,-10.24 100.01,-10.26 100.11,-10.28 100.21,-10.28 100.31,-10.28 100.41,-10.25 100.50,-10.22 100.59,-10.18 100.68,-10.13 100.75,-10.06 100.82,-9.99 100.87,-9.91 100.93,-9.82 100.96,-9.73 100.99,-9.63 102.20,-7.77 103.41,-5.90 105.43,-1.44 107.44,3.01 109.88,10.75 112.32,18.48 114.12,28.85 115.92,39.21 116.84,50.48 117.75,61.74 117.69,72.43 117.63,83.12 116.71,91.94 115.79,100.76 114.42,106.81 113.05,112.87 111.19,117.09 109.33,121.32 106.68,123.93 104.03,126.54 100.15,126.94 96.26,127.34 91.17,124.75 86.08,122.16 80.55,116.07 75.03,109.98 70.10,100.00 65.16,90.03 61.78,75.92 58.40,61.81 57.13,46.75 55.85,31.70 57.22,18.49 58.59,5.28 62.22,-5.41 65.85,-16.10 70.61,-23.18 75.36,-30.27 80.53,-34.10 85.70,-37.93 90.86,-39.15 96.02,-40.36 101.36,-38.35 106.69,-36.34 111.66,-30.47 116.62,-24.59 120.01,-15.16 123.40,-5.72 125.04,7.00 126.69,19.73 126.62,32.90 126.55,46.07 125.51,55.66 124.47,65.24 123.36,71.40 122.26,77.55 121.37,81.61 120.47,85.67 120.02,87.65 119.57,89.64 119.54,89.71 119.51,89.79 119.47,89.85 119.43,89.92 119.37,89.97 119.31,90.03 119.24,90.06 119.17,90.10 119.10,90.12 119.02,90.14 118.94,90.15 118.86,90.15 118.79,90.13 118.71,90.11 118.64,90.08 118.57,90.04 118.51,89.99 118.44,89.94 118.40,89.88 118.35,89.81 118.32,89.74 118.29,89.67 118.28,89.59 118.27,89.51 118.28,89.43 118.28,89.35 119.24,88.15 120.20,86.95 124.31,80.74 128.41,74.53 135.88,64.14 143.34,53.76 151.42,43.43 159.50,33.10 165.74,25.66 171.97,18.22 176.38,13.32 180.80,8.41 183.89,5.32 186.98,2.23 188.69,1.36 190.41,0.49 190.47,0.45 190.53,0.40 190.61,0.36 190.68,0.33 190.76,0.32 190.83,0.30 190.91,0.31 190.99,0.31 191.07,0.34 191.14,0.36 191.21,0.40 191.28,0.44 191.33,0.50 191.39,0.55 191.43,0.62 191.47,0.69 191.50,0.77 191.52,0.84 191.52,0.92 191.53,1.00 191.51,1.08 191.50,1.15 191.47,1.23 191.44,1.30 191.39,1.36 191.34,1.42 191.51,4.98 191.68,8.53 189.09,20.20 186.49,31.86 181.85,49.02 177.21,66.18 172.98,81.51 168.74,96.83 165.84,107.31 162.94,117.79 161.00,125.04 159.06,132.29 158.17,136.63 157.28,140.97 157.25,141.05 157.22,141.12 157.17,141.18 157.13,141.25 157.07,141.30 157.01,141.35 156.93,141.39 156.86,141.42 156.79,141.44 156.71,141.46 156.63,141.45 156.55,141.45 156.48,141.43 156.40,141.41 156.33,141.37 156.26,141.34 156.20,141.28 156.14,141.23 156.10,141.16 156.06,141.10 156.03,141.02 156.00,140.95 155.99,140.87 155.99,140.79 156.00,140.71 156.01,140.63 158.29,140.08 160.58,139.53 167.86,132.36 175.15,125.19 187.05,112.52 198.96,99.84 210.24,87.66 221.52,75.47 229.30,67.01 237.08,58.56 242.69,52.47 248.30,46.39 252.10,42.30 255.90,38.20 257.92,36.13 259.93,34.06 260.37,33.77 260.81,33.48 260.89,33.42 260.96,33.37 261.05,33.33 261.13,33.28 261.23,33.27 261.32,33.25 261.41,33.25 261.51,33.26 261.60,33.28 261.69,33.31 261.77,33.36 261.85,33.41 261.92,33.47 261.99,33.54 262.04,33.62 262.09,33.70 262.12,33.79 262.15,33.88 262.16,33.97 262.16,34.07 262.15,34.16 262.13,34.26 262.09,34.34 262.06,34.43 262.00,34.50 261.94,34.58 260.74,36.23 259.55,37.88 257.17,40.94 254.80,43.99 252.09,47.21 249.38,50.43 246.62,53.29 243.85,56.14 241.46,58.05 239.07,59.97 237.33,61.37 235.59,62.77 235.49,62.82 235.40,62.87 235.30,62.89 235.19,62.91 235.09,62.89 234.98,62.88 234.89,62.83 234.79,62.79 234.72,62.71 234.64,62.63 234.59,62.54 234.55,62.44 234.53,62.34 234.52,62.23 234.54,62.13 234.56,62.03 234.61,61.93 234.66,61.84 234.74,61.77 234.82,61.70 234.92,61.66 235.02,61.62 235.12,61.61 235.23,61.60 235.33,61.62 235.44,61.65 235.52,61.71 235.61,61.76 235.68,61.85 235.75,61.93 235.78,62.03 235.82,62.13 235.82,62.24 235.83,62.34 235.79,62.44 235.76,62.55 235.70,62.63 235.64,62.72 235.55,62.78 235.47,62.84 235.36,62.87 235.26,62.90 235.16,62.90 235.05,62.90 234.95,62.86 234.85,62.82 234.77,62.76 234.68,62.69 234.63,62.60 234.57,62.51 234.55,62.41 234.52,62.30 234.53,62.20 234.54,62.09 234.58,62.00 234.62,61.90 234.69,61.82 234.76,61.74 234.76,61.74 234.76,61.74 236.51,60.34 238.25,58.95 240.58,57.08 242.91,55.22 245.64,52.41 248.38,49.59 251.07,46.39 253.76,43.19 256.11,40.16 258.46,37.14 259.64,35.31 260.81,33.48 260.89,33.42 260.96,33.37 261.05,33.33 261.13,33.28 261.23,33.27 261.32,33.25 261.41,33.25 261.51,33.26 261.60,33.28 261.69,33.31 261.77,33.36 261.85,33.41 261.92,33.47 261.99,33.54 262.04,33.62 262.09,33.70 262.12,33.79 262.15,33.88 262.16,33.97 262.16,34.07 262.15,34.16 262.13,34.26 262.09,34.34 262.06,34.43 262.00,34.50 261.94,34.58 261.40,34.79 260.85,34.99 258.86,37.04 256.86,39.09 253.06,43.19 249.26,47.28 243.65,53.36 238.05,59.45 230.27,67.90 222.49,76.36 211.20,88.55 199.92,100.74 187.99,113.44 176.06,126.13 168.49,133.45 160.92,140.76 159.10,140.87 157.28,140.97 157.25,141.04 157.22,141.12 157.17,141.18 157.13,141.25 157.07,141.30 157.01,141.35 156.94,141.39 156.86,141.42 156.79,141.44 156.71,141.46 156.63,141.45 156.55,141.45 156.48,141.43 156.40,141.41 156.33,141.37 156.26,141.34 156.20,141.28 156.14,141.23 156.10,141.16 156.06,141.10 156.03,141.02 156.00,140.95 155.99,140.87 155.99,140.79 156.00,140.71 156.01,140.63 156.90,136.29 157.80,131.95 159.74,124.69 161.67,117.44 164.57,106.96 167.48,96.48 171.71,81.16 175.94,65.84 180.58,48.71 185.21,31.58 187.79,20.06 190.37,8.55 190.39,4.52 190.41,0.49 190.47,0.45 190.53,0.40 190.61,0.36 190.68,0.33 190.76,0.32 190.83,0.30 190.91,0.31 190.99,0.31 191.07,0.34 191.14,0.36 191.21,0.40 191.28,0.44 191.33,0.50 191.39,0.55 191.43,0.62 191.47,0.69 191.50,0.76 191.52,0.84 191.52,0.92 191.53,1.00 191.51,1.08 191.50,1.15 191.47,1.23 191.44,1.30 191.39,1.36 191.34,1.42 189.61,2.30 187.89,3.17 184.83,6.23 181.77,9.29 177.38,14.18 172.98,19.07 166.76,26.49 160.54,33.91 152.47,44.22 144.41,54.53 136.96,64.89 129.51,75.25 125.36,81.52 121.21,87.79 120.39,88.71 119.57,89.64 119.54,89.71 119.51,89.79 119.47,89.85 119.43,89.92 119.37,89.97 119.31,90.03 119.24,90.06 119.17,90.10 119.10,90.12 119.02,90.14 118.94,90.15 118.86,90.15 118.79,90.13 118.71,90.11 118.64,90.08 118.57,90.04 118.51,89.99 118.44,89.94 118.40,89.88 118.35,89.81 118.32,89.74 118.29,89.67 118.28,89.59 118.27,89.51 118.28,89.43 118.28,89.35 118.74,87.37 119.19,85.38 120.08,81.35 120.97,77.32 122.06,71.21 123.16,65.10 124.20,55.58 125.24,46.06 125.31,32.98 125.38,19.89 123.77,7.30 122.16,-5.28 118.88,-14.53 115.60,-23.78 110.88,-29.47 106.15,-35.16 101.17,-37.13 96.19,-39.09 91.32,-37.98 86.44,-36.86 81.44,-33.19 76.44,-29.51 71.76,-22.59 67.09,-15.67 63.49,-5.12 59.90,5.43 58.53,18.51 57.16,31.59 58.42,46.55 59.68,61.50 63.01,75.48 66.35,89.45 71.18,99.28 76.02,109.11 81.36,115.06 86.71,121.01 91.48,123.53 96.26,126.05 99.77,125.78 103.28,125.51 105.71,123.13 108.13,120.75 109.94,116.66 111.74,112.57 113.09,106.59 114.45,100.62 115.35,91.86 116.26,83.11 116.32,72.48 116.37,61.85 115.45,50.65 114.53,39.45 112.74,29.18 110.94,18.91 108.51,11.27 106.07,3.63 104.07,-0.73 102.07,-5.11 101.10,-6.72 100.12,-8.33 99.75,-8.81 99.38,-9.29 99.37,-9.39 99.36,-9.49 99.38,-9.59 99.39,-9.69 99.43,-9.78 99.47,-9.87 99.53,-9.95 99.58,-10.03 99.66,-10.09 99.74,-10.16 99.83,-10.20 99.92,-10.24 100.01,-10.26 100.11,-10.28 100.21,-10.28 100.31,-10.28 100.41,-10.25 100.50,-10.22 100.59,-10.18 100.68,-10.13 100.75,-10.06 100.82,-9.99 100.87,-9.91 100.93,-9.82 100.96,-9.73 100.99,-9.63 101.08,-8.97 101.17,-8.31 101.46,-6.98 101.76,-5.64 102.22,-3.39 102.69,-1.13 103.31,2.19 103.94,5.53 104.74,10.31 105.55,15.08 105.82,17.46 106.10,19.84 106.17,21.07 106.24,22.31 106.05,23.01 105.85,23.71 104.95,23.95 104.05,24.19 103.52,23.97 102.99,23.76 102.04,23.45 101.09,23.15 99.51,22.69 97.93,22.24 95.54,21.58 93.15,20.93 89.72,19.95 86.30,18.96 81.90,17.67 77.51,16.39 72.15,14.83 66.79,13.27 60.78,11.66 54.76,10.05 48.81,8.57 42.86,7.09 37.26,5.73 31.66,4.37 26.46,3.25 21.26,2.14 16.64,1.52 12.02,0.90 8.43,0.78 4.83,0.67 2.42,0.72 0.01,0.78 -0.08,0.77 -0.17,0.76 -0.26,0.72 -0.35,0.69 -0.43,0.64 -0.50,0.59 -0.57,0.52 -0.63,0.45 -0.68,0.37 -0.72,0.28 -0.75,0.19 -0.77,0.10 -0.77,0.01 -0.77,-0.08 -0.75,-0.17 -0.73,-0.26 -0.69,-0.35 -0.64,-0.43 -0.58,-0.50 -0.52,-0.57 -0.44,-0.63 -0.37,-0.68 -0.28,-0.72 -0.19,-0.75 -0.10,-0.76 -0.01,-0.78 -0.01,-0.78 L -0.01,-0.78 Z"></path></g><g transform="translate(123.3203125 71.80859375) rotate(0 56.3974609375 98.1875)" stroke="none"><path fill="#e03131" d="M 0.83,0.16 Q 0.83,0.16 0.45,1.89 0.08,3.62 -0.95,6.67 -1.98,9.72 -3.43,13.40 -4.88,17.08 -6.27,20.75 -7.67,24.42 -8.61,27.08 -9.55,29.73 -10.03,31.43 -10.51,33.13 -10.73,33.98 -10.95,34.82 -8.29,34.99 -5.62,35.15 0.21,34.22 6.05,33.28 15.86,30.93 25.68,28.57 37.62,25.26 49.56,21.95 60.44,18.70 71.32,15.44 79.33,12.98 87.35,10.51 92.72,8.85 98.09,7.18 101.60,6.18 105.11,5.17 107.32,4.94 109.54,4.70 110.65,6.44 111.76,8.18 111.69,13.76 111.63,19.35 109.59,29.21 107.55,39.07 103.28,52.61 99.01,66.15 94.23,79.34 89.46,92.53 85.73,102.29 81.99,112.05 79.36,118.73 76.72,125.40 75.08,129.58 73.44,133.77 72.57,136.10 71.71,138.44 71.42,139.56 71.13,140.68 71.10,140.75 71.06,140.82 71.01,140.88 70.96,140.94 70.89,140.99 70.83,141.03 70.75,141.06 70.68,141.09 70.60,141.10 70.52,141.11 70.44,141.10 70.36,141.09 70.29,141.06 70.22,141.04 70.15,140.99 70.08,140.95 70.03,140.89 69.98,140.83 69.94,140.76 69.90,140.69 69.88,140.61 69.86,140.54 69.86,140.46 69.86,140.38 69.88,140.30 69.90,140.22 70.97,140.04 72.05,139.86 75.12,138.26 78.19,136.67 83.63,133.35 89.06,130.03 94.61,126.24 100.15,122.46 104.62,119.20 109.09,115.94 112.36,113.50 115.63,111.06 117.79,109.47 119.95,107.88 121.16,107.05 122.36,106.21 122.87,106.09 123.39,105.97 123.47,105.93 123.56,105.88 123.65,105.86 123.74,105.83 123.84,105.83 123.93,105.83 124.03,105.85 124.12,105.88 124.20,105.92 124.29,105.96 124.36,106.03 124.43,106.09 124.49,106.17 124.54,106.25 124.58,106.34 124.61,106.43 124.63,106.52 124.64,106.62 124.63,106.71 124.62,106.81 124.58,106.90 124.55,106.99 124.50,107.06 124.44,107.14 124.37,107.21 124.30,107.27 124.24,108.69 124.19,110.10 122.46,114.89 120.74,119.67 116.88,127.37 113.02,135.08 107.61,144.05 102.19,153.02 96.50,161.04 90.80,169.05 85.85,175.01 80.89,180.96 77.05,184.91 73.21,188.86 70.49,191.17 67.76,193.48 65.76,195.18 63.77,196.87 63.67,196.93 63.58,196.98 63.48,197.00 63.38,197.03 63.27,197.01 63.16,197.00 63.07,196.96 62.97,196.91 62.89,196.84 62.82,196.77 62.77,196.67 62.72,196.58 62.70,196.47 62.68,196.37 62.70,196.26 62.72,196.16 62.77,196.07 62.82,195.97 62.90,195.90 62.97,195.83 63.07,195.78 63.17,195.74 63.27,195.73 63.38,195.71 63.48,195.74 63.58,195.76 63.68,195.81 63.77,195.87 63.84,195.95 63.90,196.03 63.94,196.13 63.98,196.23 63.99,196.34 63.99,196.44 63.97,196.54 63.94,196.65 63.88,196.73 63.82,196.82 63.73,196.89 63.65,196.95 63.55,196.98 63.45,197.02 63.34,197.02 63.23,197.02 63.13,196.98 63.03,196.95 62.95,196.89 62.86,196.82 62.80,196.73 62.74,196.65 62.72,196.54 62.69,196.44 62.69,196.33 62.70,196.23 62.74,196.13 62.78,196.03 62.85,195.95 62.92,195.87 62.92,195.87 62.92,195.87 64.91,194.18 66.91,192.48 69.59,190.21 72.27,187.94 76.07,184.03 79.88,180.12 84.80,174.20 89.73,168.29 95.39,160.32 101.06,152.34 106.45,143.41 111.84,134.49 115.67,126.85 119.49,119.21 121.18,114.59 122.87,109.97 123.13,107.97 123.39,105.97 123.47,105.93 123.56,105.88 123.65,105.86 123.74,105.83 123.84,105.83 123.93,105.83 124.03,105.85 124.12,105.88 124.20,105.92 124.29,105.96 124.36,106.03 124.43,106.09 124.49,106.17 124.54,106.25 124.58,106.34 124.61,106.43 124.63,106.52 124.64,106.62 124.63,106.71 124.62,106.81 124.58,106.90 124.55,106.99 124.50,107.06 124.44,107.14 124.37,107.21 124.30,107.27 123.68,107.30 123.06,107.33 121.90,108.15 120.75,108.97 118.60,110.56 116.44,112.15 113.17,114.60 109.90,117.05 105.42,120.33 100.94,123.61 95.37,127.43 89.81,131.24 84.33,134.61 78.86,137.98 75.44,139.66 72.03,141.35 71.58,141.02 71.13,140.68 71.10,140.75 71.06,140.82 71.01,140.88 70.96,140.94 70.89,140.99 70.83,141.03 70.75,141.06 70.68,141.09 70.60,141.10 70.52,141.11 70.44,141.10 70.36,141.09 70.29,141.06 70.22,141.04 70.15,140.99 70.08,140.95 70.03,140.89 69.98,140.83 69.94,140.76 69.90,140.69 69.88,140.61 69.86,140.54 69.86,140.46 69.86,140.38 69.88,140.30 69.90,140.22 70.19,139.11 70.47,137.99 71.35,135.64 72.22,133.29 73.86,129.10 75.50,124.92 78.13,118.25 80.76,111.58 84.49,101.83 88.23,92.08 92.99,78.92 97.75,65.75 102.01,52.28 106.26,38.80 108.28,29.06 110.31,19.32 110.45,14.03 110.59,8.75 109.74,7.18 108.89,5.61 107.18,6.03 105.48,6.45 101.99,7.46 98.49,8.47 93.12,10.14 87.75,11.81 79.73,14.29 71.72,16.76 60.82,20.03 49.93,23.30 37.97,26.63 26.01,29.97 16.15,32.35 6.28,34.73 0.32,35.71 -5.63,36.69 -8.33,36.61 -11.03,36.53 -11.59,35.82 -12.15,35.11 -11.99,33.93 -11.83,32.76 -11.34,31.02 -10.86,29.27 -9.93,26.60 -9.00,23.92 -7.62,20.24 -6.24,16.55 -4.83,12.90 -3.42,9.24 -2.45,6.27 -1.47,3.30 -1.15,1.57 -0.83,-0.16 -0.79,-0.26 -0.76,-0.36 -0.71,-0.44 -0.65,-0.53 -0.58,-0.60 -0.51,-0.67 -0.42,-0.72 -0.33,-0.77 -0.23,-0.80 -0.13,-0.83 -0.03,-0.84 0.06,-0.84 0.16,-0.82 0.26,-0.80 0.35,-0.76 0.45,-0.71 0.53,-0.65 0.60,-0.58 0.67,-0.50 0.73,-0.42 0.77,-0.33 0.81,-0.23 0.83,-0.13 0.84,-0.03 0.83,0.06 0.83,0.16 0.83,0.16 L 0.83,0.16 Z"></path></g></svg>